<svg xmlns="http://www.w3.org/2000/svg" version="1.1" xmlns:xlink="http://www.w3.org/1999/xlink" xmlns:svgjs="http://svgjs.dev/svgjs" viewBox="0 0 800 800"><defs><linearGradient x1="50%" y1="0%" x2="50%" y2="100%" id="ffflurry-grad" gradientTransform="rotate(270)"><stop stop-color="hsl(238, 82%, 13%)" stop-opacity="1" offset="0%"></stop><stop stop-color="hsl(1.4, 100%, 67%)" stop-opacity="1" offset="45%"></stop><stop stop-color="hsl(167, 52%, 78%)" stop-opacity="1" offset="100%"></stop></linearGradient></defs><rect width="100%" height="100%" fill="#301c29"></rect><g fill="#ec0057"><rect width="45" height="3" x="53.5" y="187.5" rx="1.5" transform="rotate(45, 76, 189)" opacity="0.79"></rect><rect width="331" height="3" x="605.5" y="378.5" rx="1.5" transform="rotate(45, 771, 380)" opacity="0.89"></rect><rect width="305" height="3" x="173.5" y="273.5" rx="1.5" transform="rotate(45, 326, 275)" opacity="0.63"></rect><rect width="350" height="3" x="234" y="602.5" rx="1.5" transform="rotate(45, 409, 604)" opacity="0.53"></rect><rect width="152" height="3" x="345" y="359.5" rx="1.5" transform="rotate(45, 421, 361)" opacity="0.21"></rect><rect width="239" height="3" x="591.5" y="23.5" rx="1.5" transform="rotate(45, 711, 25)" opacity="0.96"></rect><rect width="241" height="3" x="392.5" y="665.5" rx="1.5" transform="rotate(45, 513, 667)" opacity="0.60"></rect><rect width="63" height="3" x="720.5" y="321.5" rx="1.5" transform="rotate(45, 752, 323)" opacity="0.63"></rect><rect width="507" height="3" x="276.5" y="231.5" rx="1.5" transform="rotate(45, 530, 233)" opacity="0.99"></rect><rect width="161" height="3" x="539.5" y="456.5" rx="1.5" transform="rotate(45, 620, 458)" opacity="0.42"></rect><rect width="306" height="3" x="530" y="497.5" rx="1.5" transform="rotate(45, 683, 499)" opacity="0.67"></rect><rect width="317" height="3" x="199.5" y="730.5" rx="1.5" transform="rotate(45, 358, 732)" opacity="0.70"></rect><rect width="136" height="3" x="241" y="380.5" rx="1.5" transform="rotate(45, 309, 382)" opacity="0.37"></rect><rect width="259" height="3" x="233.5" y="349.5" rx="1.5" transform="rotate(45, 363, 351)" opacity="0.16"></rect><rect width="31" height="3" x="695.5" y="160.5" rx="1.5" transform="rotate(45, 711, 162)" opacity="0.89"></rect><rect width="236" height="3" x="613" y="769.5" rx="1.5" transform="rotate(45, 731, 771)" opacity="0.47"></rect><rect width="244" height="3" x="603" y="649.5" rx="1.5" transform="rotate(45, 725, 651)" opacity="1.00"></rect><rect width="190" height="3" x="355" y="415.5" rx="1.5" transform="rotate(45, 450, 417)" opacity="0.29"></rect><rect width="447" height="3" x="428.5" y="596.5" rx="1.5" transform="rotate(45, 652, 598)" opacity="0.35"></rect><rect width="535" height="3" x="483.5" y="578.5" rx="1.5" transform="rotate(45, 751, 580)" opacity="0.27"></rect><rect width="93" height="3" x="109.5" y="615.5" rx="1.5" transform="rotate(45, 156, 617)" opacity="0.40"></rect><rect width="118" height="3" x="567" y="335.5" rx="1.5" transform="rotate(45, 626, 337)" opacity="0.83"></rect><rect width="259" height="3" x="645.5" y="80.5" rx="1.5" transform="rotate(45, 775, 82)" opacity="0.75"></rect><rect width="275" height="3" x="431.5" y="433.5" rx="1.5" transform="rotate(45, 569, 435)" opacity="0.33"></rect><rect width="219" height="3" x="653.5" y="187.5" rx="1.5" transform="rotate(45, 763, 189)" opacity="0.26"></rect><rect width="942" height="3" x="-122" y="64.5" rx="1.5" transform="rotate(45, 349, 66)" opacity="0.97"></rect><rect width="545" height="3" x="274.5" y="756.5" rx="1.5" transform="rotate(45, 547, 758)" opacity="0.15"></rect><rect width="122" height="3" x="516" y="606.5" rx="1.5" transform="rotate(45, 577, 608)" opacity="0.17"></rect><rect width="61" height="3" x="-1.5" y="139.5" rx="1.5" transform="rotate(45, 29, 141)" opacity="0.08"></rect><rect width="185" height="3" x="438.5" y="337.5" rx="1.5" transform="rotate(45, 531, 339)" opacity="0.78"></rect><rect width="196" height="3" x="496" y="517.5" rx="1.5" transform="rotate(45, 594, 519)" opacity="0.14"></rect><rect width="326" height="3" x="-84" y="589.5" rx="1.5" transform="rotate(45, 79, 591)" opacity="0.77"></rect><rect width="207" height="3" x="521.5" y="157.5" rx="1.5" transform="rotate(45, 625, 159)" opacity="0.08"></rect><rect width="461" height="3" x="143.5" y="174.5" rx="1.5" transform="rotate(45, 374, 176)" opacity="0.12"></rect><rect width="502" height="3" x="-198" y="334.5" rx="1.5" transform="rotate(45, 53, 336)" opacity="0.71"></rect><rect width="189" height="3" x="73.5" y="480.5" rx="1.5" transform="rotate(45, 168, 482)" opacity="0.08"></rect><rect width="52" height="3" x="462" y="467.5" rx="1.5" transform="rotate(45, 488, 469)" opacity="0.92"></rect><rect width="182" height="3" x="621" y="90.5" rx="1.5" transform="rotate(45, 712, 92)" opacity="0.98"></rect><rect width="479" height="3" x="113.5" y="465.5" rx="1.5" transform="rotate(45, 353, 467)" opacity="0.10"></rect><rect width="212" height="3" x="216" y="612.5" rx="1.5" transform="rotate(45, 322, 614)" opacity="0.56"></rect><rect width="591" height="3" x="314.5" y="238.5" rx="1.5" transform="rotate(45, 610, 240)" opacity="0.08"></rect><rect width="638" height="3" x="-269" y="477.5" rx="1.5" transform="rotate(45, 50, 479)" opacity="0.73"></rect><rect width="292" height="3" x="-52" y="100.5" rx="1.5" transform="rotate(45, 94, 102)" opacity="0.21"></rect><rect width="206" height="3" x="154" y="220.5" rx="1.5" transform="rotate(45, 257, 222)" opacity="0.30"></rect><rect width="412" height="3" x="483" y="266.5" rx="1.5" transform="rotate(45, 689, 268)" opacity="0.92"></rect><rect width="211" height="3" x="659.5" y="255.5" rx="1.5" transform="rotate(45, 765, 257)" opacity="0.86"></rect><rect width="717" height="3" x="-273.5" y="743.5" rx="1.5" transform="rotate(45, 85, 745)" opacity="0.27"></rect><rect width="1020" height="3" x="1" y="73.5" rx="1.5" transform="rotate(45, 511, 75)" opacity="0.61"></rect><rect width="387" height="3" x="296.5" y="580.5" rx="1.5" transform="rotate(45, 490, 582)" opacity="0.12"></rect><rect width="431" height="3" x="17.5" y="731.5" rx="1.5" transform="rotate(45, 233, 733)" opacity="0.09"></rect><rect width="332" height="3" x="101" y="511.5" rx="1.5" transform="rotate(45, 267, 513)" opacity="0.34"></rect><rect width="581" height="3" x="160.5" y="741.5" rx="1.5" transform="rotate(45, 451, 743)" opacity="0.98"></rect><rect width="443" height="3" x="-18.5" y="41.5" rx="1.5" transform="rotate(45, 203, 43)" opacity="0.29"></rect><rect width="582" height="3" x="-59" y="592.5" rx="1.5" transform="rotate(45, 232, 594)" opacity="0.42"></rect><rect width="487" height="3" x="204.5" y="297.5" rx="1.5" transform="rotate(45, 448, 299)" opacity="0.14"></rect><rect width="374" height="3" x="447" y="723.5" rx="1.5" transform="rotate(45, 634, 725)" opacity="0.26"></rect><rect width="272" height="3" x="626" y="506.5" rx="1.5" transform="rotate(45, 762, 508)" opacity="0.32"></rect><rect width="324" height="3" x="-69" y="32.5" rx="1.5" transform="rotate(45, 93, 34)" opacity="0.23"></rect><rect width="76" height="3" x="-7" y="646.5" rx="1.5" transform="rotate(45, 31, 648)" opacity="0.25"></rect><rect width="334" height="3" x="460" y="63.5" rx="1.5" transform="rotate(45, 627, 65)" opacity="0.08"></rect><rect width="323" height="3" x="56.5" y="133.5" rx="1.5" transform="rotate(45, 218, 135)" opacity="0.91"></rect><rect width="414" height="3" x="-88" y="240.5" rx="1.5" transform="rotate(45, 119, 242)" opacity="0.51"></rect><rect width="134" height="3" x="351" y="506.5" rx="1.5" transform="rotate(45, 418, 508)" opacity="0.37"></rect><rect width="494" height="3" x="-216" y="238.5" rx="1.5" transform="rotate(45, 31, 240)" opacity="0.56"></rect><rect width="343" height="3" x="279.5" y="205.5" rx="1.5" transform="rotate(45, 451, 207)" opacity="0.90"></rect><rect width="300" height="3" x="-21" y="391.5" rx="1.5" transform="rotate(45, 129, 393)" opacity="0.26"></rect><rect width="537" height="3" x="-9.5" y="433.5" rx="1.5" transform="rotate(45, 259, 435)" opacity="0.51"></rect><rect width="164" height="3" x="60" y="166.5" rx="1.5" transform="rotate(45, 142, 168)" opacity="0.08"></rect><rect width="37" height="3" x="499.5" y="515.5" rx="1.5" transform="rotate(45, 518, 517)" opacity="0.14"></rect><rect width="75" height="3" x="720.5" y="707.5" rx="1.5" transform="rotate(45, 758, 709)" opacity="0.43"></rect><rect width="170" height="3" x="89" y="282.5" rx="1.5" transform="rotate(45, 174, 284)" opacity="0.52"></rect><rect width="186" height="3" x="-68" y="44.5" rx="1.5" transform="rotate(45, 25, 46)" opacity="0.31"></rect><rect width="219" height="3" x="594.5" y="387.5" rx="1.5" transform="rotate(45, 704, 389)" opacity="0.75"></rect><rect width="41" height="3" x="626.5" y="409.5" rx="1.5" transform="rotate(45, 647, 411)" opacity="0.15"></rect><rect width="71" height="3" x="495.5" y="402.5" rx="1.5" transform="rotate(45, 531, 404)" opacity="0.41"></rect><rect width="85" height="3" x="716.5" y="441.5" rx="1.5" transform="rotate(45, 759, 443)" opacity="0.68"></rect><rect width="225" height="3" x="119.5" y="349.5" rx="1.5" transform="rotate(45, 232, 351)" opacity="0.57"></rect></g></svg>